<svg data-v-0dd9719b="" version="1.0" xmlns="http://www.w3.org/2000/svg" xmlns:xlink="http://www.w3.org/1999/xlink" width="100%" height="100%" viewBox="0 0 340.000000 250.000000" preserveAspectRatio="xMidYMid meet" color-interpolation-filters="sRGB" style="margin: auto;"> <rect data-v-0dd9719b="" x="0" y="0" width="100%" height="100%" fill="#fff" fill-opacity="1" class="background"></rect> <rect data-v-0dd9719b="" x="0" y="0" width="100%" height="100%" fill="url(#watermark)" fill-opacity="1" class="watermarklayer"></rect> <g data-v-0dd9719b="" fill="#d89b21" class="icon-text-wrapper icon-svg-group iconsvg" transform="translate(48.86000061035156,96.8487491607666)"><g class="iconsvg-imagesvg" transform="translate(0,4.500150680541992)"><g><rect fill="#d89b21" fill-opacity="0" stroke-width="2" x="0" y="0" width="60" height="47.30219797546592" class="image-rect"></rect> <svg x="0" y="0" width="60" height="47.30219797546592" filtersec="colorsb868962755" class="image-svg-svg primary" style="overflow: visible;"><svg xmlns="http://www.w3.org/2000/svg" viewBox="0 0 73.62000274658203 58.040000915527344"><g><g><path fill="#c1c1c1" d="M48.89 0L36.81 28.83l12.27 29.21 12.22-28.9L73.62 0H48.89z"></path><path fill="#6b6b6b" d="M48.89 0L36.81 28.83l12.27 29.21h24.54L48.89 0z"></path><path fill="#d89b21" d="M0 58.04h24.73l12.08-28.82L24.54 0 12.32 28.91 0 58.04z"></path><path fill="#ffce00" d="M36.81 29.22L24.54 0H0l24.73 58.04 12.08-28.82z"></path></g></g></svg></svg> <!----></g></g> <g transform="translate(67,0)"><g data-gra="path-name" fill-rule="" class="tp-name iconsvg-namesvg" transform="translate(0,0)"><g transform="scale(1)"><g><path d="M22.5 3.87L22.5 3.87 12.6 3.87 12.6 0.9 21.02 0.9 21.02-14.45 4.37-14.45Q3.51-14.45 3.06-15.16L3.06-15.16Q2.65-15.88 3.1-16.65L3.1-16.65 10.71-29.2 2.38-29.2 2.38-32.17 12.51-32.17 14.98-36.23 17.5-34.65 15.97-32.17 42.66-32.17 42.66-29.2 14.17-29.2 6.97-17.37 21.02-17.37 21.02-26.28 23.98-26.28 23.98-17.37 41.27-17.37 41.27-14.45 23.98-14.45 23.98 2.38Q23.98 3.01 23.56 3.44 23.13 3.87 22.5 3.87L22.5 3.87ZM11.38-11.79L5.35 4.09 2.61 3.06 8.59-12.87 11.38-11.79ZM42.61 3.06L39.82 4.09 33.84-11.79 36.59-12.87 42.61 3.06ZM87.07-17.86L87.07-17.86 85.72-17.86 85.72-15.43 49.01-15.43 49.01-17.86 47.79-17.86 47.79-24.07Q47.79-24.7 48.2-25.13 48.6-25.56 49.23-25.56L49.23-25.56 66.28-25.56 65.61-27.68 68.4-28.62 69.39-25.56 85.59-25.56Q86.22-25.56 86.65-25.13 87.07-24.7 87.07-24.07L87.07-24.07 87.07-17.86ZM87.48 3.92L87.48 3.92 78.25 3.92Q77.63 3.92 77.2 3.49 76.77 3.06 76.77 2.43L76.77 2.43 76.77-6.97 58.27-6.97 49.59 4.27 47.25 2.48 54.54-6.97 47.52-6.97 47.52-9.95 87.21-9.95 87.21-6.97 79.74-6.97 79.74 0.99 87.48 0.99 87.48 3.92ZM78.53-26.91L75.56-26.86 75.56-30.2 59.45-30.2 59.49-26.86 56.52-26.86 56.48-30.2 47.34-30.2 47.34-33.12 56.48-33.12 56.48-36.27 59.45-36.27 59.45-33.12 75.56-33.12 75.56-36.27 78.48-36.27 78.48-33.12 87.66-33.12 87.66-30.2 78.48-30.2 78.53-26.91ZM84.15-18.36L84.15-22.59 50.72-22.59 50.72-18.36 84.15-18.36ZM131.04 3.96L131.04 3.96 110.25 3.96Q109.62 3.96 109.19 3.53 108.77 3.1 108.77 2.48L108.77 2.48 108.77-13.28Q108.77-13.9 109.19-14.33 109.62-14.76 110.25-14.76L110.25-14.76 131.04-14.76Q131.67-14.76 132.1-14.33 132.53-13.9 132.53-13.28L132.53-13.28 132.53 2.48Q132.53 3.1 132.1 3.53 131.67 3.96 131.04 3.96L131.04 3.96ZM107.55-14.8L107.55-14.8 106.65-17.64 115.38-20.38 111.06-27.04 113.53-28.66 118.31-21.33 128.88-24.66 128.88-30.55 109.89-30.55Q109.03-30.55 108.63-31.32L108.63-31.32Q108.18-32.04 108.63-32.8L108.63-32.8 111.19-36.99 113.72-35.46 112.55-33.52 130.37-33.52Q131-33.52 131.4-33.1 131.81-32.67 131.81-32.04L131.81-32.04 131.81-23.58Q131.81-23.09 131.53-22.7 131.26-22.32 130.77-22.18L130.77-22.18 107.55-14.8ZM107.19-10.3L107.19-10.3 100.53-10.3 100.53 0.45 106.83-1.13 107.55 1.71 99.41 3.78Q99.31 3.82 99.05 3.82L99.05 3.82Q98.5 3.82 98.14 3.51L98.14 3.51Q97.56 3.06 97.56 2.34L97.56 2.34 97.56-10.3 92.39-10.3 92.39-13.28 97.56-13.28 97.56-22.86 92.75-22.86 92.75-25.83 106.92-25.83 106.92-22.86 100.53-22.86 100.53-13.28 107.19-13.28 107.19-10.3ZM107.19-30.78L107.19-30.78 93.96-30.78Q93.06-30.78 92.7-31.5L92.7-31.5Q92.3-32.17 92.66-32.98L92.66-32.98 95-37.08 97.56-35.64 96.48-33.7 107.19-33.7 107.19-30.78ZM111.73-11.83L111.73 0.99 129.56 0.99 129.56-11.83 111.73-11.83ZM147.15-18.5L142.92 4.09 140 3.51 144.18-18.5 137.34-18.5 137.34-21.42 144.72-21.42 146.66-31.63 138.65-30.91 138.42-33.88 159.39-35.73 159.66-32.8 149.72-31.9 147.74-21.42 166.72-21.42 166.72-36.27 169.65-36.27 169.65-21.42 177.66-21.42 177.66-18.5 169.65-18.5 169.65 3.92 166.72 3.92 166.72-18.5 147.15-18.5Z" transform="translate(-2.380000114440918, 37.08000183105469)"></path></g> <!----> <!----> <!----> <!----> <!----> <!----> <!----></g></g> <g data-gra="path-slogan" fill-rule="" class="tp-slogan iconsvg-slogansvg" fill="#d89b21" transform="translate(14.794998168945312,47.35000228881836)"><!----> <!----> <g transform="scale(1, 1)"><g transform="scale(1)"><path d="M4.41 0L0.94 0L0.94-8.58L4.45-8.58Q7.92-8.39 8.06-4.41L8.06-4.41Q7.88-0.09 4.41 0L4.41 0ZM4.27-7.64L2.11-7.64L2.11-0.98L4.36-0.98Q6.80-1.13 6.89-4.31L6.89-4.31Q6.84-7.55 4.27-7.64L4.27-7.64ZM16.31-4.27L16.31-4.27Q16.13-7.64 13.31-7.83L13.31-7.83Q10.45-7.69 10.31-4.27L10.31-4.27Q10.45-0.94 13.31-0.80L13.31-0.80Q16.13-0.98 16.31-4.27ZM17.48-4.27L17.48-4.27Q17.20 0 13.31 0.14L13.31 0.14Q9.38 0 9.09-4.27L9.09-4.27Q9.33-8.72 13.31-8.81L13.31-8.81Q17.20-8.67 17.48-4.27ZM20.25-8.58L24.56-1.64L24.56-8.58L25.69-8.58L25.69 0L24.38 0L20.02-6.94L19.97-6.94L19.97 0L18.84 0L18.84-8.58L20.25-8.58ZM33.89-3.61L31.27-3.61L31.27-4.59L35.02-4.59L35.02 0L34.27 0L33.98-1.08Q33 0.09 31.17 0.14L31.17 0.14Q29.44 0.14 28.50-0.75L28.50-0.75Q27.09-2.06 27.14-4.36L27.14-4.36Q27.47-8.63 31.22-8.81L31.22-8.81Q34.41-8.63 34.88-6L34.88-6L33.75-6Q33.28-7.78 31.17-7.83L31.17-7.83Q28.50-7.64 28.36-4.31L28.36-4.31Q28.36-0.75 31.22-0.75L31.22-0.75Q32.25-0.75 33-1.31L33-1.31Q33.94-2.06 33.89-3.61L33.89-3.61ZM43.22-3.61L40.59-3.61L40.59-4.59L44.34-4.59L44.34 0L43.59 0L43.31-1.08Q42.33 0.09 40.50 0.14L40.50 0.14Q38.77 0.14 37.83-0.75L37.83-0.75Q36.42-2.06 36.47-4.36L36.47-4.36Q36.80-8.63 40.55-8.81L40.55-8.81Q43.73-8.63 44.20-6L44.20-6L43.08-6Q42.61-7.78 40.50-7.83L40.50-7.83Q37.83-7.64 37.69-4.31L37.69-4.31Q37.69-0.75 40.55-0.75L40.55-0.75Q41.58-0.75 42.33-1.31L42.33-1.31Q43.27-2.06 43.22-3.61L43.22-3.61ZM51.80-3.19L51.80-8.58L52.97-8.58L52.97-3.05Q52.83 0.05 49.45 0.14L49.45 0.14Q46.31 0.05 46.17-2.86L46.17-2.86L46.17-8.58L47.34-8.58L47.34-3.19Q47.39-0.84 49.50-0.80L49.50-0.80Q51.80-0.84 51.80-3.19L51.80-3.19ZM60.42 0L59.58-2.48L56.11-2.48L55.22 0L54.05 0L57.28-8.58L58.59-8.58L61.69 0L60.42 0ZM57.84-7.31L56.48-3.52L59.16-3.52L57.89-7.31L57.84-7.31ZM64.13-8.58L68.44-1.64L68.44-8.58L69.56-8.58L69.56 0L68.25 0L63.89-6.94L63.84-6.94L63.84 0L62.72 0L62.72-8.58L64.13-8.58ZM82.92-8.58L82.92 0L81.80 0L81.80-5.06Q81.80-5.77 81.80-7.22L81.80-7.22L79.36 0L78.19 0L75.80-7.22L75.75-7.22Q75.75-6.70 75.80-5.67L75.80-5.67Q75.80-5.16 75.80-5.06L75.80-5.06L75.80 0L74.63 0L74.63-8.58L76.31-8.58L78.80-1.31L81.23-8.58L82.92-8.58ZM84.80-8.58L85.97-8.58L85.97 0L84.80 0L84.80-8.58ZM89.34-8.58L93.66-1.64L93.66-8.58L94.78-8.58L94.78 0L93.47 0L89.11-6.94L89.06-6.94L89.06 0L87.94 0L87.94-8.58L89.34-8.58ZM102.98-3.61L100.36-3.61L100.36-4.59L104.11-4.59L104.11 0L103.36 0L103.08-1.08Q102.09 0.09 100.27 0.14L100.27 0.14Q98.53 0.14 97.59-0.75L97.59-0.75Q96.19-2.06 96.23-4.36L96.23-4.36Q96.56-8.63 100.31-8.81L100.31-8.81Q103.50-8.63 103.97-6L103.97-6L102.84-6Q102.38-7.78 100.27-7.83L100.27-7.83Q97.59-7.64 97.45-4.31L97.45-4.31Q97.45-0.75 100.31-0.75L100.31-0.75Q101.34-0.75 102.09-1.31L102.09-1.31Q103.03-2.06 102.98-3.61L102.98-3.61ZM112.17-6.09L112.17-6.09L111.09-6.09Q111-7.73 108.94-7.83L108.94-7.83Q107.02-7.78 107.02-6.33L107.02-6.33Q107.02-5.39 108.05-5.25L108.05-5.25L110.48-4.69Q112.41-4.22 112.41-2.34L112.41-2.34Q112.36 0.05 109.03 0.14L109.03 0.14Q107.20 0.14 106.45-0.61L106.45-0.61Q105.52-1.31 105.56-2.77L105.56-2.77L106.69-2.77Q106.73-0.80 109.03-0.75L109.03-0.75Q111.28-0.80 111.33-2.20L111.33-2.20Q111.52-3.38 109.45-3.75L109.45-3.75L107.67-4.13Q105.84-4.64 105.84-6.19L105.84-6.19Q105.98-8.72 108.84-8.81L108.84-8.81Q112.08-8.81 112.17-6.09ZM115.03-5.06L119.53-5.06L119.53-8.58L120.70-8.58L120.70 0L119.53 0L119.53-3.98L115.03-3.98L115.03 0L113.86 0L113.86-8.58L115.03-8.58L115.03-5.06ZM123.80-1.03L128.95-1.03L128.95 0L122.63 0L122.63-8.58L128.86-8.58L128.86-7.59L123.80-7.59L123.80-4.92L128.48-4.92L128.48-3.89L123.80-3.89L123.80-1.03ZM131.86-8.58L136.17-1.64L136.17-8.58L137.30-8.58L137.30 0L135.98 0L131.63-6.94L131.58-6.94L131.58 0L130.45 0L130.45-8.58L131.86-8.58ZM145.50-3.61L142.88-3.61L142.88-4.59L146.63-4.59L146.63 0L145.88 0L145.59-1.08Q144.61 0.09 142.78 0.14L142.78 0.14Q141.05 0.14 140.11-0.75L140.11-0.75Q138.70-2.06 138.75-4.36L138.75-4.36Q139.08-8.63 142.83-8.81L142.83-8.81Q146.02-8.63 146.48-6L146.48-6L145.36-6Q144.89-7.78 142.78-7.83L142.78-7.83Q140.11-7.64 139.97-4.31L139.97-4.31Q139.97-0.75 142.83-0.75L142.83-0.75Q143.86-0.75 144.61-1.31L144.61-1.31Q145.55-2.06 145.50-3.61L145.50-3.61Z" transform="translate(-0.9375, 8.8125)"></path></g></g></g></g></g><defs v-gra="od"></defs></svg>